# Apple ModelIO OBJ File: alien
mtllib alien.mtl
g 
v 1.3 0 -1.3
v 1.3 0 1.3
v -1.3 0 1.3
v -1.3 0 -1.3
v -1.3 2.6 -1.3
v -1.3 2.6 1.3
v 1.3 2.6 1.3
v 1.3 2.6 -1.3
vn -0.00392154 -0.999992 0
vn -0.999992 0.00392154 0
vn -0.00392157 0.00392157 0.999985
vn 0.999992 0.00392154 0
vn -0.00392154 0.999992 0
vn -0.00392157 0.00392157 -0.999985
vt -1 -0.750004
vt -1 -0.499996
vt -1.25 -0.499996
vt -1.25 -0.750004
vt -0.499996 -0.249998
vt -0.499996 -0.499996
vt -0.249998 -0.499996
vt -0.249998 -0.249998
vt -1 -0.249998
vt -1.25 -0.249998
vt -0.750004 -0.499996
vt -0.750004 -0.249998
vt -0.249998 -0.750004
vt 0 -0.750004
vt 0 -0.499996
usemtl material_1
f 1/1/1 2/2/1 3/3/1
f 3/3/1 4/4/1 1/1/1
f 5/5/2 4/6/2 3/7/2
f 3/7/2 6/8/2 5/5/2
f 3/3/3 2/2/3 7/9/3
f 7/9/3 6/10/3 3/3/3
f 1/11/4 8/12/4 7/9/4
f 7/9/4 2/2/4 1/11/4
f 7/7/5 8/13/5 5/14/5
f 5/14/5 6/15/5 7/7/5
f 1/11/6 4/6/6 5/5/6
f 5/5/6 8/12/6 1/11/6
s off
g _1
v 1.3 2.6 -1.3
v 1.3 2.6 1.3
v -1.3 2.6 1.3
v -1.3 2.6 -1.3
v 1.3 5.2 1.3
v -1.3 5.2 1.3
v 1.3 5.2 -1.3
v -1.3 5.2 -1.3
vn -0.00392154 -0.999992 0
vn -0.00392154 0.999992 0
vn -0.00392157 0.00392157 0.999985
vn -0.00392157 0.00392157 -0.999985
vn 0.999992 0.00392154 0
vn -0.999992 0.00392154 0
vt -0.249996 -0.750002
vt 1.90736e-06 -0.750002
vt 1.90736e-06 -0.500004
vt -0.249996 -0.500004
vt -0.249996 -0.249996
vt 1.90736e-06 -0.249996
vt 1.90736e-06 1.90735e-06
vt -0.249996 1.90735e-06
vt -0.124997 1.90735e-06
vt 0.125001 0.25
vt 0.125001 1.90735e-06
vt -0.124997 0.25
vt -0.750002 -0.249996
vt -0.750002 1.90735e-06
vt -1 1.90735e-06
vt -1 -0.249996
vt -0.500004 -0.249996
vt -0.500004 1.90735e-06
vt -0.500004 -0.500004
vt -0.500004 -0.750002
usemtl material_2
f 9/16/7 10/17/7 11/18/7
f 11/18/7 12/19/7 9/16/7
f 9/16/8 11/18/8 10/17/8
f 11/18/8 9/16/8 12/19/8
f 11/20/9 10/21/9 13/22/9
f 13/22/9 14/23/9 11/20/9
f 11/24/10 13/25/10 10/26/10
f 13/25/10 11/24/10 14/27/10
f 9/28/11 15/29/11 13/30/11
f 13/30/11 10/31/11 9/28/11
f 9/26/12 13/27/12 15/25/12
f 13/27/12 9/26/12 10/24/12
f 9/28/10 12/32/10 16/33/10
f 16/33/10 15/29/10 9/28/10
f 9/28/9 16/33/9 12/32/9
f 16/33/9 9/28/9 15/29/9
f 16/33/12 12/32/12 11/20/12
f 11/20/12 14/23/12 16/33/12
f 16/27/11 11/26/11 12/24/11
f 11/26/11 16/27/11 14/25/11
f 13/34/8 15/35/8 16/16/8
f 16/16/8 14/19/8 13/34/8
f 13/34/7 16/16/7 15/35/7
f 16/16/7 13/34/7 14/19/7
s off
g _2
v -2.41592 0.36816 0.557962
v -1.3 0.36816 0.557962
v -1.3 2.6 0.557962
v -2.41592 2.6 0.557962
v -1.3 0.36816 -0.557958
v -1.3 2.6 -0.557958
v -2.41592 2.6 -0.557958
v -2.41592 0.36816 -0.557958
vn -0.00392157 0.00392157 0.999985
vn 0.999992 0.00392154 0
vn -0.00392154 0.999992 0
vn -0.999992 0.00392154 0
vn -0.00392157 0.00392157 -0.999985
vn -0.00392154 -0.999992 0
vt -0.749996 -0.749996
vt -0.625 -0.749996
vt -0.625 -0.500004
vt -0.749996 -0.500004
vt -0.874993 -0.749996
vt -0.874993 -0.500004
vt -1 -0.500004
vt -1 -0.749996
vt -1 -0.625
vt -0.874993 -0.625
vt -0.500004 -0.749996
vt -0.500004 -0.500004
vt -0.125 -15.5
vt -0.249996 -15.5
vt -0.249996 -15.625
vt -0.125 -15.625
usemtl material_3
f 17/36/13 18/37/13 19/38/13
f 19/38/13 20/39/13 17/36/13
f 21/40/14 22/41/14 19/42/14
f 19/42/14 18/43/14 21/40/14
f 19/44/15 22/45/15 23/41/15
f 23/41/15 20/42/15 19/44/15
f 23/38/16 24/37/16 17/46/16
f 17/46/16 20/47/16 23/38/16
f 21/40/17 24/36/17 23/39/17
f 23/39/17 22/41/17 21/40/17
f 21/48/18 18/49/18 17/50/18
f 17/50/18 24/51/18 21/48/18
s off
g _3
v 2.41592 0.36816 -0.55796
v 2.41592 0.36816 0.55796
v 1.3 0.36816 0.55796
v 1.3 0.36816 -0.55796
v 2.41592 2.6 -0.55796
v 2.41592 2.6 0.55796
v 1.3 2.6 -0.55796
v 1.3 2.6 0.55796
vn -0.00392154 -0.999992 0
vn 0.999992 0.00392154 0
vn -0.999992 0.00392154 0
vn -0.00392154 0.999992 0
vn -0.00392157 0.00392157 0.999985
vn -0.00392157 0.00392157 -0.999985
vt -0.249996 -15.625
vt -0.125 -15.625
vt -0.125 -15.5
vt -0.249996 -15.5
vt -0.500004 -0.749996
vt -0.500004 -0.500004
vt -0.625 -0.500004
vt -0.625 -0.749996
vt -1 -0.500004
vt -1 -0.749996
vt -0.874993 -0.749996
vt -0.874993 -0.500004
vt -1 -0.625
vt -0.874993 -0.625
vt -0.749996 -0.749996
vt -0.749996 -0.500004
usemtl material_4
f 25/52/19 26/53/19 27/54/19
f 27/54/19 28/55/19 25/52/19
f 25/56/20 29/57/20 30/58/20
f 30/58/20 26/59/20 25/56/20
f 31/60/21 28/61/21 27/62/21
f 27/62/21 32/63/21 31/60/21
f 30/63/22 29/60/22 31/64/22
f 31/64/22 32/65/22 30/63/22
f 27/62/23 26/66/23 30/67/23
f 30/67/23 32/63/23 27/62/23
f 25/66/24 28/59/24 31/58/24
f 31/58/24 29/67/24 25/66/24
s off
