# Apple ModelIO OBJ File: barrel
mtllib barrel.mtl
g 
v -0.3 0 0
v 0 0 0.519615
v -0.3 0 1.03923
v -0.9 0 0
v -0.9 0 1.03923
v -1.2 0 0.519615
v -0.3 0.5 0
v 0 0.5 0.519615
v -0.3 0.5 1.03923
v -0.9 0.5 1.03923
v -1.2 0.5 0.519615
v -0.9 0.5 0
v -0.3 1.5 1.03923
v 0 1.5 0.519615
v -0.3 1.5 0
v -0.9 1.5 0
v -0.9 1.5 1.03923
v -1.2 1.5 0.519615
v -0.3 1 0
v 0 1 0.519615
v -0.9 1 0
v -1.2 1 0.519615
v -0.9 1 1.03923
v -0.3 1 1.03923
vn -0.00392154 -0.999992 0
vn 0.866667 0.00392157 -0.498872
vn 0.866667 0.00392157 0.498872
vn -0.00392157 0.00392157 0.999985
vn -0.866667 0.00392157 0.498872
vn -0.866667 0.00392157 -0.498872
vn -0.00392157 0.00392157 -0.999985
vn -0.00392154 0.999992 0
vt -1.1811 -3.69549e-06
vt -3.64407e-06 2.04573
vt -1.1811 4.09146
vt -3.54331 -3.69549e-06
vt -3.54331 4.09146
vt -4.72441 2.04573
vt 0.590556 -3.69549e-06
vt 0.590556 1.96851
vt -1.77165 1.96851
vt -1.77165 -3.69549e-06
vt -4.13386 1.96851
vt -4.13386 -3.69549e-06
vt -1.1811 1.96851
vt -3.54331 1.96851
vt -0.590553 1.96851
vt -0.590553 -3.69549e-06
vt 1.77165 -3.69549e-06
vt 1.77165 1.96851
vt 4.13386 -3.69549e-06
vt 4.13386 1.96851
vt 1.18111 -3.69549e-06
vt 3.5433 -3.69549e-06
vt 3.5433 1.96851
vt 1.18111 1.96851
vt 1.18111 4.09146
vt 3.5433 4.09146
vt 4.72441 2.04573
vt 0.590556 3.937
vt 0.590556 5.90551
vt -1.77165 5.90551
vt -1.77165 3.937
vt 1.18111 3.937
vt 3.5433 3.937
vt 3.5433 5.90551
vt 1.18111 5.90551
vt 1.77165 5.90551
vt 1.77165 3.937
vt 4.13386 3.937
vt 4.13386 5.90551
vt -0.590553 5.90551
vt -0.590553 3.937
vt -3.54331 3.937
vt -1.1811 3.937
vt -1.1811 5.90551
vt -3.54331 5.90551
vt -4.13386 5.90551
vt -4.13386 3.937
usemtl material_1
f 1/1/1 2/2/1 3/3/1
f 3/3/1 4/4/1 1/1/1
f 3/3/1 5/5/1 4/4/1
f 5/5/1 6/6/1 4/4/1
f 1/7/2 7/8/2 8/9/2
f 8/9/2 2/10/2 1/7/2
f 2/10/3 8/9/3 9/11/3
f 9/11/3 3/12/3 2/10/3
f 5/4/4 3/1/4 9/13/4
f 9/13/4 10/14/4 5/4/4
f 11/15/5 6/16/5 5/17/5
f 5/17/5 10/18/5 11/15/5
f 12/18/6 4/17/6 6/19/6
f 6/19/6 11/20/6 12/18/6
f 1/21/7 4/22/7 12/23/7
f 12/23/7 7/24/7 1/21/7
f 13/25/8 14/2/8 15/21/8
f 15/21/8 16/22/8 13/25/8
f 16/22/8 17/26/8 13/25/8
f 16/22/8 18/27/8 17/26/8
f 19/28/2 15/29/2 14/30/2
f 14/30/2 20/31/2 19/28/2
f 19/32/7 21/33/7 16/34/7
f 16/34/7 15/35/7 19/32/7
f 16/36/6 21/37/6 22/38/6
f 22/38/6 18/39/6 16/36/6
f 18/40/5 22/41/5 23/37/5
f 23/37/5 17/36/5 18/40/5
f 23/42/4 24/43/4 13/44/4
f 13/44/4 17/45/4 23/42/4
f 20/31/3 14/30/3 13/46/3
f 13/46/3 24/47/3 20/31/3
s off
g _1
v -0.3 0.5 0
v -0.3 1 0
v 0 1 0.519615
v 0 0.5 0.519615
v -0.9 0.5 0
v -0.9 1 0
v -1.2 0.5 0.519615
v -1.2 1 0.519615
v -0.9 0.5 1.03923
v -0.9 1 1.03923
v -0.3 0.5 1.03923
v -0.3 1 1.03923
vn 0.866667 0.00392157 -0.498872
vn -0.00392157 0.00392157 -0.999985
vn -0.866667 0.00392157 -0.498872
vn -0.866667 0.00392157 0.498872
vn -0.00392157 0.00392157 0.999985
vn 0.866667 0.00392157 0.498872
vt 3.5433 1.96851
vt 1.18111 1.96851
vt 1.18111 -3.69549e-06
usemtl material_2
f 25/48/9 26/49/9 27/50/9
f 27/48/9 28/49/9 25/50/9
f 25/48/10 29/49/10 30/50/10
f 30/48/10 26/49/10 25/50/10
f 30/48/11 29/49/11 31/50/11
f 31/48/11 32/49/11 30/50/11
f 32/48/12 31/49/12 33/50/12
f 33/48/12 34/49/12 32/50/12
f 33/48/13 35/49/13 36/50/13
f 36/48/13 34/49/13 33/50/13
f 28/48/14 27/49/14 36/50/14
f 36/48/14 35/49/14 28/50/14
s off
